<svg width="140" height="78" viewBox="0 0 140 78" fill="none" xmlns="http://www.w3.org/2000/svg">
<path fill-rule="evenodd" clip-rule="evenodd" d="M33.6024 0.762229L1.39636 0.762207C1.39636 0.762214 1.39636 0.762221 1.39636 0.762229C1.39636 43.177 35.7803 77.561 78.1951 77.561V45.3551C53.5672 45.355 33.6024 25.3902 33.6024 0.762229Z" fill="white"/>
<path fill-rule="evenodd" clip-rule="evenodd" d="M95.0415 0.762229L62.8354 0.762207C62.8354 0.762214 62.8354 0.762221 62.8354 0.762229C62.8354 43.177 97.2194 77.561 139.634 77.561V45.3551C115.006 45.355 95.0415 25.3901 95.0415 0.762229Z" fill="white"/>
<path fill-rule="evenodd" clip-rule="evenodd" d="M23.7377 53.8232L0 53.8232C0 65.8326 10.2931 75.7835 23.7377 77.561L23.7377 53.8232Z" fill="white"/>
</svg>